<svg width="29" height="30" viewBox="0 0 29 30" fill="none" xmlns="http://www.w3.org/2000/svg">
<path d="M1.76729 0.771118C1.45475 0.771118 1.15501 0.895273 0.934018 1.11627C0.713022 1.33727 0.588867 1.637 0.588867 1.94954C0.588867 2.26207 0.713022 2.56181 0.934018 2.7828C1.15501 3.0038 1.45475 3.12795 1.76729 3.12795H2.34707C2.60295 3.1284 2.85174 3.21212 3.05583 3.36646C3.25993 3.52081 3.40824 3.73739 3.47835 3.98349L7.21629 17.0639C7.42771 17.8021 7.87371 18.4514 8.48687 18.9136C9.10002 19.3758 9.847 19.6258 10.6148 19.6258H21.3832C22.0899 19.6259 22.7804 19.4142 23.3656 19.0181C23.9508 18.6219 24.4039 18.0595 24.6663 17.4033L28.1403 8.71601C28.2831 8.35854 28.3362 7.97153 28.2949 7.58881C28.2536 7.20609 28.1192 6.83931 27.9034 6.52052C27.6876 6.20174 27.3971 5.94066 27.0571 5.76011C26.7171 5.57956 26.3381 5.48503 25.9531 5.48479H6.3584L5.74327 3.33536C5.53239 2.59713 5.08693 1.94762 4.47421 1.485C3.86149 1.02237 3.11482 0.771788 2.34707 0.771118H1.76729ZM11.1946 29.0532C11.6589 29.0532 12.1186 28.9617 12.5475 28.784C12.9764 28.6064 13.3662 28.346 13.6944 28.0177C14.0227 27.6894 14.2831 27.2997 14.4608 26.8708C14.6384 26.4419 14.7299 25.9822 14.7299 25.5179C14.7299 25.0536 14.6384 24.5939 14.4608 24.165C14.2831 23.7361 14.0227 23.3464 13.6944 23.0181C13.3662 22.6898 12.9764 22.4294 12.5475 22.2517C12.1186 22.0741 11.6589 21.9826 11.1946 21.9826C10.257 21.9826 9.35782 22.3551 8.69483 23.0181C8.03184 23.6811 7.65938 24.5803 7.65938 25.5179C7.65938 26.4555 8.03184 27.3547 8.69483 28.0177C9.35782 28.6807 10.257 29.0532 11.1946 29.0532ZM20.622 29.0532C21.0862 29.0532 21.5459 28.9617 21.9749 28.784C22.4038 28.6064 22.7935 28.346 23.1218 28.0177C23.4501 27.6894 23.7105 27.2997 23.8881 26.8708C24.0658 26.4419 24.1572 25.9822 24.1572 25.5179C24.1572 25.0536 24.0658 24.5939 23.8881 24.165C23.7105 23.7361 23.4501 23.3464 23.1218 23.0181C22.7935 22.6898 22.4038 22.4294 21.9749 22.2517C21.5459 22.0741 21.0862 21.9826 20.622 21.9826C19.6844 21.9826 18.7852 22.3551 18.1222 23.0181C17.4592 23.6811 17.0867 24.5803 17.0867 25.5179C17.0867 26.4555 17.4592 27.3547 18.1222 28.0177C18.7852 28.6807 19.6844 29.0532 20.622 29.0532Z" fill="black"/>
</svg>
