<svg width="216" height="33" viewBox="0 0 216 33" fill="none" xmlns="http://www.w3.org/2000/svg">
<path d="M42.7032 0.0450943C39.285 0.0372961 35.8669 0.0450943 32.4487 0.0392456H29.7454C29.0171 0.0762872 28.4868 0.362872 28.1045 0.975032L27.4628 2.25394C26.675 3.85258 25.8661 5.44146 25.0668 7.03425C24.8151 7.53529 24.5634 8.03437 24.3078 8.54126C24.1388 8.88048 23.9658 9.22165 23.791 9.57062L22.9821 11.179L22.961 11.2219L22.4825 10.2354L21.8907 9.0267C21.0011 7.20581 20.1058 5.38493 19.2258 3.56014L19.1355 3.37299L17.9999 1.04132L17.9961 1.03547C17.608 0.405762 17.0834 0.0938332 16.3341 0.0411952H13.0582C10.2145 0.0470438 7.37086 0.0411952 4.52722 0.0411952H4.30434C3.58574 0.0411952 2.86714 0.0431447 2.14855 0.0431447C0.870827 0.0450943 0.5 0.431106 0.5 1.72756V30.3509C0.5 31.6123 0.747858 31.9671 1.82575 32.0139H12.3837C13.4885 31.9535 13.7172 31.5889 13.7191 30.2476V29.2436C13.721 25.7168 13.7191 22.1901 13.7191 18.6653C13.7326 18.6614 13.7441 18.6594 13.7575 18.6555V18.3456L15.0737 20.9424L15.114 21.0223C15.9844 22.7282 16.8548 24.434 17.7137 26.1477L18.7723 28.2376C19.2181 28.9395 19.8253 29.2533 20.7072 29.2299C21.7947 29.1968 22.8841 29.187 23.9716 29.2319C24.9112 29.2709 25.5606 28.9648 26.0429 28.2162L26.7883 26.7618L26.8076 26.7228C27.9604 24.4145 29.1536 22.1277 30.3391 19.837L30.7099 19.1156C30.7579 18.9987 30.7944 18.8544 30.8924 18.7569L31.2421 18.0765V31.2107C31.3459 31.78 31.6418 31.973 32.3411 32.012H43.1201L43.1355 32.01C44.0347 31.9476 44.2806 31.585 44.2806 30.501V29.2319C44.2825 20.0495 44.2825 10.8651 44.2806 1.68272C44.2806 0.421359 43.9328 0.0470438 42.7032 0.0450943Z" fill="#232321"/>
<path d="M60.7188 0.0377754C56.9433 0.0338763 53.1678 0.0338763 49.3923 0.0377754C47.9705 0.0377754 47.6362 0.371149 47.6342 1.79432C47.6304 6.52979 47.6323 11.2653 47.6323 16.0007C47.6323 20.7362 47.6323 25.536 47.6342 30.3027C47.6342 31.7863 47.8571 32.0144 49.2828 32.0163C50.9044 32.0183 52.528 32.0183 54.1496 32.0183C56.3669 32.0183 58.5823 32.0183 60.7995 32.0163C61.8294 32.0144 62.254 31.8584 62.4058 31.2073V0.952117C62.2444 0.242479 61.7814 0.0377754 60.7188 0.0377754Z" fill="#232321"/>
<path d="M93.4497 14.5683C93.7264 14.1608 94.003 13.7534 94.2778 13.3459L94.3643 13.2172L99.7825 5.0876L99.7941 5.07005C100.096 4.61775 100.395 4.16351 100.697 3.71121C100.812 3.5377 100.93 3.36419 101.045 3.19263L101.241 2.90019L101.602 2.35822V2.35432C101.781 2.08138 101.954 1.80844 102.119 1.52966C102.588 0.738138 102.348 0.235153 101.46 0.0733396C101.21 0.0265503 100.949 0.0440963 100.693 0.0440963C96.6276 0.0440963 92.5601 0.0694405 88.4944 0.0265503H88.4483C87.4992 0.0265503 86.8536 0.342378 86.3425 1.06566L85.353 2.78712C84.2962 4.65284 83.2183 6.50687 82.1423 8.35895L82.1251 8.38819L80.832 10.6321C80.7532 10.7667 80.5495 10.7121 80.5495 10.5541V1.05787C80.3997 0.250749 79.9347 0.0460458 78.7569 0.0440963C75.1389 0.0440963 71.5209 0.0440963 67.903 0.0440963C66.1776 0.0440963 65.8144 0.207859 65.7549 1.58814V30.6677C65.7568 30.7164 65.7568 30.7652 65.7587 30.8139C65.7818 31.6191 66.1641 32.0051 66.9404 32.0266H67.9971C71.7727 32.0168 75.5482 32.0207 79.3237 32.0266H79.3294C80.0365 32.0266 80.4169 31.7166 80.5495 31.1668V28.6636C80.5495 28.3516 80.6475 28.0456 80.83 27.7941L80.8377 27.7824C80.8762 27.72 80.9223 27.6576 80.9741 27.5952L80.9799 27.5874L82.2653 25.8153L82.2768 25.7958C82.3249 25.7197 82.371 25.6574 82.4152 25.6067C82.5593 25.4059 82.8609 25.4254 82.9782 25.6418L83.0204 25.7178C83.0473 25.7626 83.0761 25.8133 83.105 25.8679C83.2164 26.0765 83.3298 26.2871 83.4431 26.4957L83.7832 27.1195C84.4672 28.3692 85.1628 29.6111 85.8276 30.8705C86.2118 31.5996 86.7229 31.9544 87.4799 32.0266H89.8874C93.5534 32.011 97.2213 32.0246 100.887 32.0246C100.939 32.0246 100.993 32.0246 101.047 32.0266H101.297C101.385 32.0246 101.473 32.0188 101.56 32.0032C102.23 31.8823 102.509 31.5041 102.213 30.8315C102.073 30.5098 101.894 30.2018 101.714 29.9015C100.793 28.3672 99.8729 26.8329 98.9525 25.2986L94.4353 17.8104C94.1049 17.2626 93.7705 16.7147 93.4381 16.1689C93.4055 16.1143 93.3747 16.0616 93.3478 16.009L92.9463 15.3423L93.3075 14.8003C93.3478 14.7262 93.394 14.6482 93.4497 14.5683Z" fill="#232321"/>
<path d="M137.845 0.0363123C135.989 0.0363123 134.133 0.0363123 132.277 0.0363123C130.421 0.0363123 128.565 0.0363123 126.711 0.0363123C125.4 0.0363123 124.934 0.241016 124.797 1.169V11.3028H120.568V1.4088C120.493 0.350191 120.076 0.0402115 118.895 0.0382619C116.975 0.0363123 115.056 0.0343628 113.134 0.0343628C111.213 0.0343628 109.293 0.0343628 107.374 0.0382619C106.106 0.0402115 105.708 0.434022 105.708 1.72268C105.702 11.293 105.701 20.8634 105.708 30.4338C105.708 31.7146 106.029 32.0149 107.314 32.0168C108.938 32.0188 110.562 32.0188 112.183 32.0188C114.401 32.0188 116.618 32.0188 118.835 32.0168C120.149 32.0168 120.499 31.8219 120.568 30.7184V21.6549H120.945C121.037 21.6354 121.154 21.6296 121.296 21.6393C121.387 21.6452 121.477 21.651 121.567 21.6549H123.748C123.827 21.6491 123.904 21.6452 123.982 21.6393C124.13 21.6296 124.25 21.6335 124.349 21.653H124.797V31.0147C124.922 31.8589 125.339 32.0168 126.549 32.0168C128.454 32.0168 130.358 32.0188 132.262 32.0188C134.166 32.0188 136.07 32.0168 137.972 32.0168C139.427 32.0168 139.671 31.7575 139.671 30.2466V1.92348C139.671 0.35604 139.365 0.0382619 137.845 0.0363123Z" fill="#232321"/>
<path d="M182.547 30.3831L180.251 23.5635L180.074 23.0352C178.036 16.9857 175.995 10.9382 173.966 4.8868L172.708 1.1456V1.1417C172.446 0.474952 172.066 0.127931 171.426 0.0285034H154.401C153.494 0.0928387 153.325 0.379423 152.916 1.58815L150.696 8.13085L145.063 24.7508L144.898 25.2402C144.323 26.9421 143.751 28.6421 143.18 30.346C142.801 31.4807 143.09 31.9973 144.125 32.0012C148.126 32.0188 152.128 32.0012 156.128 32.0149C156.724 32.0188 157.104 31.7829 157.329 31.3559L158.09 27.9754H158.843C158.883 27.9715 158.928 27.9734 158.972 27.9754H159.002L164.473 27.9695C165.055 27.9091 165.654 27.8136 166.129 27.9676H166.7L166.847 28.6928C166.932 28.9209 166.974 29.1861 167.005 29.4629L167.408 31.428C167.656 31.8238 168.062 32.0246 168.675 32.0246H168.734C170.846 31.9817 172.959 32.011 175.071 32.011C177.183 32.011 179.233 32.0168 181.314 32.009C182.626 32.0051 182.937 31.6308 182.557 30.4123L182.547 30.3831ZM164.398 19.1302H164.388C164.348 19.1322 164.305 19.1322 164.257 19.1302H164.238L160.082 19.1341L160.19 18.6546L160.57 16.9682L162.597 7.96319L163.26 11.1975L163.279 11.2852C163.454 12.1235 163.629 12.958 163.802 13.7924C164.025 14.8685 164.236 15.9486 164.455 17.0286L164.546 17.4692C164.613 17.789 164.68 18.1106 164.747 18.4304C164.763 18.5044 164.776 18.5727 164.786 18.637L164.888 19.1283H164.398V19.1302Z" fill="#232321"/>
<path d="M215.846 22.7477C215.844 21.4843 215.584 21.1237 214.468 21.071L202.579 21.0788C202.335 21.0788 202.091 21.0827 201.847 21.0847C201.76 21.0866 201.683 21.0847 201.61 21.0788H200.932V20.6792C200.88 20.531 200.863 20.3322 200.865 20.0729C200.899 13.9415 200.886 7.81016 200.882 1.67881C200.88 0.417449 200.525 0.043134 199.299 0.0411845C197.362 0.0372853 195.427 0.0333862 193.49 0.0333862C191.554 0.0333862 189.619 0.0372853 187.682 0.0392349C186.427 0.043134 186.06 0.405751 186.06 1.63592C186.059 7.26039 186.057 12.8849 186.057 18.5113C186.057 22.4884 186.059 26.4674 186.059 30.4445C186.059 31.7429 186.335 32.0158 187.651 32.0178C192.067 32.0217 196.484 32.0178 200.899 32.0178H200.932C205.336 32.0178 209.743 32.0197 214.147 32.0178C215.565 32.0158 215.844 31.7429 215.848 30.3392C215.85 29.2026 215.85 28.0641 215.85 26.9275C215.85 25.5336 215.85 24.1416 215.846 22.7477Z" fill="#232321"/>
</svg>
